<svg xmlns="http://www.w3.org/2000/svg"  viewBox="0 0 16 16" width="16px" height="16px" baseProfile="basic"><path fill="#fe3155" d="M16,8c0,4.419-3.581,8-8,8s-8-3.581-8-8s3.581-8,8-8S16,3.581,16,8z"/><path fill="#fff" d="M8.178,2.967c-3.453,0-5.288,2.317-5.288,4.841c0,1.173,0.625,2.634,1.625,3.1	c0.152,0.07,0.233,0.039,0.267-0.108c0.027-0.111,0.161-0.655,0.222-0.908c0.02-0.08,0.009-0.148-0.055-0.228	C4.619,9.262,4.355,8.525,4.355,7.838c0-1.764,1.336-3.472,3.611-3.472c1.966,0,3.342,1.339,3.342,3.255	c0,2.164-1.094,3.664-2.516,3.664c-0.784,0-1.373-0.65-1.184-1.447C7.834,8.887,8.27,7.861,8.27,7.175	c0-0.614-0.328-1.127-1.011-1.127c-0.803,0-1.448,0.83-1.448,1.942c0,0.708,0.239,1.188,0.239,1.188s-0.792,3.352-0.938,3.977	c-0.161,0.689-0.098,1.656-0.028,2.289c0.18,0.07,0.361,0.142,0.547,0.2c0.327-0.531,0.814-1.403,0.995-2.097	c0.097-0.375,0.498-1.903,0.498-1.903c0.261,0.498,1.022,0.919,1.833,0.919c2.413,0,4.152-2.219,4.152-4.975	C13.109,4.944,10.953,2.967,8.178,2.967z"/></svg>